# Blender 3.6.4
# www.blender.org
mtllib ur-board.mtl
o Cube.002
v 5.000000 1.000000 -5.000000
v 5.000000 -1.000000 -5.000000
v 5.000000 1.000000 -3.000000
v 5.000000 -1.000000 -3.000000
v 3.000000 1.000000 -5.000000
v 3.000000 -1.000000 -5.000000
v 3.000000 1.000000 -3.000000
v 3.000000 -1.000000 -3.000000
v 1.000000 1.000000 -5.000000
v 1.000000 -1.000000 -5.000000
v 1.000000 1.000000 -3.000000
v 1.000000 -1.000000 -3.000000
v -1.000000 1.000000 -5.000000
v -1.000000 -1.000000 -5.000000
v -1.000000 1.000000 -3.000000
v -1.000000 -1.000000 -3.000000
v 3.000000 1.000000 -5.000000
v 3.000000 -1.000000 -5.000000
v 3.000000 1.000000 -3.000000
v 3.000000 -1.000000 -3.000000
v 1.000000 1.000000 -5.000000
v 1.000000 -1.000000 -5.000000
v 1.000000 1.000000 -3.000000
v 1.000000 -1.000000 -3.000000
v 5.000000 1.000000 -7.000000
v 5.000000 -1.000000 -7.000000
v 5.000000 1.000000 -5.000000
v 5.000000 -1.000000 -5.000000
v 3.000000 1.000000 -7.000000
v 3.000000 -1.000000 -7.000000
v 3.000000 1.000000 -5.000000
v 3.000000 -1.000000 -5.000000
v 1.000000 1.000000 -7.000000
v 1.000000 -1.000000 -7.000000
v 1.000000 1.000000 -5.000000
v 1.000000 -1.000000 -5.000000
v -1.000000 1.000000 -7.000000
v -1.000000 -1.000000 -7.000000
v -1.000000 1.000000 -5.000000
v -1.000000 -1.000000 -5.000000
v 3.000000 1.000000 -7.000000
v 3.000000 -1.000000 -7.000000
v 3.000000 1.000000 -5.000000
v 3.000000 -1.000000 -5.000000
v 1.000000 1.000000 -7.000000
v 1.000000 -1.000000 -7.000000
v 1.000000 1.000000 -5.000000
v 1.000000 -1.000000 -5.000000
v 5.000000 1.000000 -1.000000
v 5.000000 -1.000000 -1.000000
v 5.000000 1.000000 1.000000
v 5.000000 -1.000000 1.000000
v 3.000000 1.000000 -1.000000
v 3.000000 -1.000000 -1.000000
v 3.000000 1.000000 1.000000
v 3.000000 -1.000000 1.000000
v 1.000000 1.000000 -1.000000
v 1.000000 -1.000000 -1.000000
v 1.000000 1.000000 1.000000
v 1.000000 -1.000000 1.000000
v -1.000000 1.000000 -1.000000
v -1.000000 -1.000000 -1.000000
v -1.000000 1.000000 1.000000
v -1.000000 -1.000000 1.000000
v 3.000000 1.000000 -1.000000
v 3.000000 -1.000000 -1.000000
v 3.000000 1.000000 1.000000
v 3.000000 -1.000000 1.000000
v 1.000000 1.000000 -1.000000
v 1.000000 -1.000000 -1.000000
v 1.000000 1.000000 1.000000
v 1.000000 -1.000000 1.000000
v 5.000000 1.000000 -3.000000
v 5.000000 -1.000000 -3.000000
v 5.000000 1.000000 -1.000000
v 5.000000 -1.000000 -1.000000
v 3.000000 1.000000 -3.000000
v 3.000000 -1.000000 -3.000000
v 3.000000 1.000000 -1.000000
v 3.000000 -1.000000 -1.000000
v 1.000000 1.000000 -3.000000
v 1.000000 -1.000000 -3.000000
v 1.000000 1.000000 -1.000000
v 1.000000 -1.000000 -1.000000
v -1.000000 1.000000 -3.000000
v -1.000000 -1.000000 -3.000000
v -1.000000 1.000000 -1.000000
v -1.000000 -1.000000 -1.000000
v 3.000000 1.000000 -3.000000
v 3.000000 -1.000000 -3.000000
v 3.000000 1.000000 -1.000000
v 3.000000 -1.000000 -1.000000
v 1.000000 1.000000 -3.000000
v 1.000000 -1.000000 -3.000000
v 1.000000 1.000000 -1.000000
v 1.000000 -1.000000 -1.000000
v 3.000000 -1.000000 9.000000
v 3.000000 1.000000 9.000000
v 3.000000 -1.000000 7.000000
v 3.000000 1.000000 7.000000
v 5.000000 -1.000000 9.000000
v 5.000000 1.000000 9.000000
v 5.000000 -1.000000 7.000000
v 5.000000 1.000000 7.000000
v 3.000000 -1.000000 7.000000
v 3.000000 1.000000 7.000000
v 3.000000 -1.000000 5.000000
v 3.000000 1.000000 5.000000
v 5.000000 -1.000000 7.000000
v 5.000000 1.000000 7.000000
v 5.000000 -1.000000 5.000000
v 5.000000 1.000000 5.000000
v 1.000000 -1.000000 3.000000
v 1.000000 1.000000 3.000000
v 1.000000 -1.000000 1.000000
v 1.000000 1.000000 1.000000
v 3.000000 -1.000000 3.000000
v 3.000000 1.000000 3.000000
v 3.000000 -1.000000 1.000000
v 3.000000 1.000000 1.000000
v 1.000000 -1.000000 5.000000
v 1.000000 1.000000 5.000000
v 1.000000 -1.000000 3.000000
v 1.000000 1.000000 3.000000
v 3.000000 -1.000000 5.000000
v 3.000000 1.000000 5.000000
v 3.000000 -1.000000 3.000000
v 3.000000 1.000000 3.000000
v -1.000000 -1.000000 9.000000
v -1.000000 1.000000 9.000000
v -1.000000 -1.000000 7.000000
v -1.000000 1.000000 7.000000
v 1.000000 -1.000000 9.000000
v 1.000000 1.000000 9.000000
v 1.000000 -1.000000 7.000000
v 1.000000 1.000000 7.000000
v -1.000000 -1.000000 7.000000
v -1.000000 1.000000 7.000000
v -1.000000 -1.000000 5.000000
v -1.000000 1.000000 5.000000
v 1.000000 -1.000000 7.000000
v 1.000000 1.000000 7.000000
v 1.000000 -1.000000 5.000000
v 1.000000 1.000000 5.000000
v 1.000000 -1.000000 9.000000
v 1.000000 1.000000 9.000000
v 1.000000 -1.000000 7.000000
v 1.000000 1.000000 7.000000
v 3.000000 -1.000000 9.000000
v 3.000000 1.000000 9.000000
v 3.000000 -1.000000 7.000000
v 3.000000 1.000000 7.000000
v 1.000000 -1.000000 7.000000
v 1.000000 1.000000 7.000000
v 1.000000 -1.000000 5.000000
v 1.000000 1.000000 5.000000
v 3.000000 -1.000000 7.000000
v 3.000000 1.000000 7.000000
v 3.000000 -1.000000 5.000000
v 3.000000 1.000000 5.000000
vn -0.0000 1.0000 -0.0000
vn -0.0000 -0.0000 1.0000
vn -1.0000 -0.0000 -0.0000
vn -0.0000 -1.0000 -0.0000
vn 1.0000 -0.0000 -0.0000
vn -0.0000 -0.0000 -1.0000
vt 0.625000 0.500000
vt 0.875000 0.500000
vt 0.875000 0.750000
vt 0.625000 0.750000
vt 0.375000 0.750000
vt 0.625000 1.000000
vt 0.375000 1.000000
vt 0.375000 0.000000
vt 0.625000 0.000000
vt 0.625000 0.250000
vt 0.375000 0.250000
vt 0.125000 0.500000
vt 0.375000 0.500000
vt 0.125000 0.750000
s 0
usemtl Material.003
f 1/1/1 5/2/1 7/3/1 3/4/1
f 4/5/2 3/4/2 7/6/2 8/7/2
f 8/8/3 7/9/3 5/10/3 6/11/3
f 6/12/4 2/13/4 4/5/4 8/14/4
f 2/13/5 1/1/5 3/4/5 4/5/5
f 6/11/6 5/10/6 1/1/6 2/13/6
f 49/1/1 53/2/1 55/3/1 51/4/1
f 52/5/2 51/4/2 55/6/2 56/7/2
f 56/8/3 55/9/3 53/10/3 54/11/3
f 54/12/4 50/13/4 52/5/4 56/14/4
f 50/13/5 49/1/5 51/4/5 52/5/5
f 54/11/6 53/10/6 49/1/6 50/13/6
f 97/8/3 98/9/3 100/10/3 99/11/3
f 99/11/6 100/10/6 104/1/6 103/13/6
f 103/13/5 104/1/5 102/4/5 101/5/5
f 101/5/2 102/4/2 98/6/2 97/7/2
f 99/12/4 103/13/4 101/5/4 97/14/4
f 104/1/1 100/2/1 98/3/1 102/4/1
f 105/8/3 106/9/3 108/10/3 107/11/3
f 107/11/6 108/10/6 112/1/6 111/13/6
f 111/13/5 112/1/5 110/4/5 109/5/5
f 109/5/2 110/4/2 106/6/2 105/7/2
f 107/12/4 111/13/4 109/5/4 105/14/4
f 112/1/1 108/2/1 106/3/1 110/4/1
f 113/8/3 114/9/3 116/10/3 115/11/3
f 115/11/6 116/10/6 120/1/6 119/13/6
f 119/13/5 120/1/5 118/4/5 117/5/5
f 117/5/2 118/4/2 114/6/2 113/7/2
f 115/12/4 119/13/4 117/5/4 113/14/4
f 120/1/1 116/2/1 114/3/1 118/4/1
f 121/8/3 122/9/3 124/10/3 123/11/3
f 123/11/6 124/10/6 128/1/6 127/13/6
f 127/13/5 128/1/5 126/4/5 125/5/5
f 125/5/2 126/4/2 122/6/2 121/7/2
f 123/12/4 127/13/4 125/5/4 121/14/4
f 128/1/1 124/2/1 122/3/1 126/4/1
f 129/8/3 130/9/3 132/10/3 131/11/3
f 131/11/6 132/10/6 136/1/6 135/13/6
f 135/13/5 136/1/5 134/4/5 133/5/5
f 133/5/2 134/4/2 130/6/2 129/7/2
f 131/12/4 135/13/4 133/5/4 129/14/4
f 136/1/1 132/2/1 130/3/1 134/4/1
f 137/8/3 138/9/3 140/10/3 139/11/3
f 139/11/6 140/10/6 144/1/6 143/13/6
f 143/13/5 144/1/5 142/4/5 141/5/5
f 141/5/2 142/4/2 138/6/2 137/7/2
f 139/12/4 143/13/4 141/5/4 137/14/4
f 144/1/1 140/2/1 138/3/1 142/4/1
f 145/8/3 146/9/3 148/10/3 147/11/3
f 147/11/6 148/10/6 152/1/6 151/13/6
f 151/13/5 152/1/5 150/4/5 149/5/5
f 149/5/2 150/4/2 146/6/2 145/7/2
f 147/12/4 151/13/4 149/5/4 145/14/4
f 152/1/1 148/2/1 146/3/1 150/4/1
f 153/8/3 154/9/3 156/10/3 155/11/3
f 155/11/6 156/10/6 160/1/6 159/13/6
f 159/13/5 160/1/5 158/4/5 157/5/5
f 157/5/2 158/4/2 154/6/2 153/7/2
f 155/12/4 159/13/4 157/5/4 153/14/4
f 160/1/1 156/2/1 154/3/1 158/4/1
usemtl Material.004
f 9/1/1 13/2/1 15/3/1 11/4/1
f 12/5/2 11/4/2 15/6/2 16/7/2
f 16/8/3 15/9/3 13/10/3 14/11/3
f 14/12/4 10/13/4 12/5/4 16/14/4
f 10/13/5 9/1/5 11/4/5 12/5/5
f 14/11/6 13/10/6 9/1/6 10/13/6
f 57/1/1 61/2/1 63/3/1 59/4/1
f 60/5/2 59/4/2 63/6/2 64/7/2
f 64/8/3 63/9/3 61/10/3 62/11/3
f 62/12/4 58/13/4 60/5/4 64/14/4
f 58/13/5 57/1/5 59/4/5 60/5/5
f 62/11/6 61/10/6 57/1/6 58/13/6
usemtl Material.005
f 17/1/1 21/2/1 23/3/1 19/4/1
f 20/5/2 19/4/2 23/6/2 24/7/2
f 24/8/3 23/9/3 21/10/3 22/11/3
f 22/12/4 18/13/4 20/5/4 24/14/4
f 18/13/5 17/1/5 19/4/5 20/5/5
f 22/11/6 21/10/6 17/1/6 18/13/6
f 65/1/1 69/2/1 71/3/1 67/4/1
f 68/5/2 67/4/2 71/6/2 72/7/2
f 72/8/3 71/9/3 69/10/3 70/11/3
f 70/12/4 66/13/4 68/5/4 72/14/4
f 66/13/5 65/1/5 67/4/5 68/5/5
f 70/11/6 69/10/6 65/1/6 66/13/6
usemtl Material.002
f 25/1/1 29/2/1 31/3/1 27/4/1
f 28/5/2 27/4/2 31/6/2 32/7/2
f 32/8/3 31/9/3 29/10/3 30/11/3
f 30/12/4 26/13/4 28/5/4 32/14/4
f 26/13/5 25/1/5 27/4/5 28/5/5
f 30/11/6 29/10/6 25/1/6 26/13/6
f 73/1/1 77/2/1 79/3/1 75/4/1
f 76/5/2 75/4/2 79/6/2 80/7/2
f 80/8/3 79/9/3 77/10/3 78/11/3
f 78/12/4 74/13/4 76/5/4 80/14/4
f 74/13/5 73/1/5 75/4/5 76/5/5
f 78/11/6 77/10/6 73/1/6 74/13/6
usemtl Material
f 33/1/1 37/2/1 39/3/1 35/4/1
f 36/5/2 35/4/2 39/6/2 40/7/2
f 40/8/3 39/9/3 37/10/3 38/11/3
f 38/12/4 34/13/4 36/5/4 40/14/4
f 34/13/5 33/1/5 35/4/5 36/5/5
f 38/11/6 37/10/6 33/1/6 34/13/6
f 81/1/1 85/2/1 87/3/1 83/4/1
f 84/5/2 83/4/2 87/6/2 88/7/2
f 88/8/3 87/9/3 85/10/3 86/11/3
f 86/12/4 82/13/4 84/5/4 88/14/4
f 82/13/5 81/1/5 83/4/5 84/5/5
f 86/11/6 85/10/6 81/1/6 82/13/6
usemtl Material.001
f 41/1/1 45/2/1 47/3/1 43/4/1
f 44/5/2 43/4/2 47/6/2 48/7/2
f 48/8/3 47/9/3 45/10/3 46/11/3
f 46/12/4 42/13/4 44/5/4 48/14/4
f 42/13/5 41/1/5 43/4/5 44/5/5
f 46/11/6 45/10/6 41/1/6 42/13/6
f 89/1/1 93/2/1 95/3/1 91/4/1
f 92/5/2 91/4/2 95/6/2 96/7/2
f 96/8/3 95/9/3 93/10/3 94/11/3
f 94/12/4 90/13/4 92/5/4 96/14/4
f 90/13/5 89/1/5 91/4/5 92/5/5
f 94/11/6 93/10/6 89/1/6 90/13/6
